<svg xmlns="http://www.w3.org/2000/svg" width="900" height="600" viewBox="0 0 900 600">
  <rect width="900" height="600" fill="#f6f4ef"/>
  <rect x="40" y="40" width="820" height="520" rx="8" fill="#fffdfa" stroke="#1f2a2f" stroke-opacity="0.14"/>
  <rect x="80" y="90" width="740" height="50" rx="8" fill="#1f2a2f" fill-opacity="0.06"/>
  <rect x="100" y="108" width="220" height="16" rx="4" fill="#1f2a2f" fill-opacity="0.25"/>
  <rect x="80" y="170" width="740" height="60" rx="6" fill="#d4e6da" fill-opacity="0.5"/>
  <rect x="100" y="188" width="160" height="14" rx="4" fill="#1f2a2f" fill-opacity="0.2"/>
  <rect x="500" y="188" width="280" height="14" rx="4" fill="#1f2a2f" fill-opacity="0.14"/>
  <rect x="80" y="250" width="740" height="60" rx="6" fill="#f2d19c" fill-opacity="0.5"/>
  <rect x="100" y="268" width="160" height="14" rx="4" fill="#1f2a2f" fill-opacity="0.2"/>
  <rect x="500" y="268" width="280" height="14" rx="4" fill="#1f2a2f" fill-opacity="0.14"/>
  <rect x="80" y="330" width="740" height="60" rx="6" fill="#d35d3f" fill-opacity="0.22"/>
  <rect x="100" y="348" width="160" height="14" rx="4" fill="#1f2a2f" fill-opacity="0.2"/>
  <rect x="500" y="348" width="280" height="14" rx="4" fill="#1f2a2f" fill-opacity="0.14"/>
  <rect x="80" y="410" width="740" height="60" rx="6" fill="#1f2a2f" fill-opacity="0.05"/>
  <rect x="100" y="428" width="160" height="14" rx="4" fill="#1f2a2f" fill-opacity="0.2"/>
  <rect x="500" y="428" width="280" height="14" rx="4" fill="#1f2a2f" fill-opacity="0.14"/>
  <text x="450" y="590" font-family="sans-serif" font-size="14" text-anchor="middle" fill="#4f5e66">Placeholder — experience overview deck excerpt</text>
</svg>
